<?xml version="1.0" standalone="no"?><!DOCTYPE svg PUBLIC "-//W3C//DTD SVG 1.1//EN" "http://www.w3.org/Graphics/SVG/1.1/DTD/svg11.dtd"><svg t="1714117137502" class="icon" viewBox="0 0 1024 1024" version="1.1" xmlns="http://www.w3.org/2000/svg" p-id="18808" xmlns:xlink="http://www.w3.org/1999/xlink" width="200" height="200"><path d="M925.184 958.592H99.0208a34.176 34.176 0 0 1-34.2016-34.2016V98.2016c0-18.8928 15.3088-34.2016 34.2016-34.2016h826.3168c18.8928 0 34.176 15.3088 34.176 34.2016v826.2912a34.304 34.304 0 0 1-34.304 34.0992zM99.0208 96a2.2272 2.2272 0 0 0-2.2016 2.2016v826.2912c0 1.2032 1.024 2.2016 2.2016 2.2016h826.3168c1.1776 0 2.176-0.9984 2.176-2.2016V98.2016a2.2272 2.2272 0 0 0-2.176-2.2016H98.9952z" fill="#434777" p-id="18809"></path><path d="M81.792 327.6032h862.6176" fill="#FFFFFF" p-id="18810"></path><path d="M81.792 308.8896h862.72v32h-862.72z" fill="#434777" p-id="18811"></path><path d="M173.312 205.9008a40.0128 40.0128 0 1 0 80 0 40.0128 40.0128 0 0 0-80 0zM313.3952 205.9008a40.0128 40.0128 0 1 0 80 0 40.0128 40.0128 0 0 0-80 0zM407.3984 778.496a38.4 38.4 0 0 1-25.1904-9.2928l-134.2976-113.9968a38.9376 38.9376 0 0 1 0.1024-59.5968l134.2976-113.1008a39.0144 39.0144 0 1 1 50.2784 59.6992l-98.9952 83.4048 99.0976 84.096a39.0912 39.0912 0 0 1-25.2928 68.7872z m211.4048 0a39.0656 39.0656 0 0 1-25.2928-68.7872l99.072-84.096-98.9696-83.4048a39.0144 39.0144 0 1 1 50.2784-59.6992l134.2976 113.1008a38.9376 38.9376 0 0 1 0.1024 59.5968l-134.2976 113.9968a38.9376 38.9376 0 0 1-25.1904 9.2928z" fill="#406b32" p-id="18812" data-spm-anchor-id="a313x.search_index.0.i1.781b3a81zuDz6u" class="selected"></path></svg>